<svg id="Layer_1" enable-background="new 0 0 510.002 510.002" height="512" viewBox="0 0 510.002 510.002" width="512" xmlns="http://www.w3.org/2000/svg"><g><path d="m444.278 239.992c39.332-78.779 19.916-154.34 19.868-155.772-29.075-43.26-96.859-84.22-194.14-84.22-34.098 0-65.199 6.498-90.132 17.586-16.315 3.945-34.517 8.5-54.159 13.557-70.818 18.229-107.28 94.952-79.073 160.761l20.628 48.132c-.427-.013-.852-.036-1.281-.036-28.121 0-51 26.916-51 60 0 37.62 29.125 65.94 60.609 58.943 7.103 84.481 78.12 151.059 164.405 151.059h30c86.29 0 157.31-66.586 164.406-151.073 31.732 7.044 60.604-21.634 60.604-58.944.001-32.98-22.736-59.823-50.735-59.993zm-44.779-175.86c20.848 13.381 32.471 26.93 36.409 31.994 7.064 38.485 3 78.553-11.46 114.81l-10.267-41.067c-6.37-25.476-30.964-40.825-63.768-33.523-47.276 11.811-53.138 13.656-80.411 13.656-42.426 0-119.997-17.575-119.997-60.002 0-14.134 11.6-28.685 31.825-39.921 23.308-12.948 54.622-20.079 88.176-20.079 63.075 0 105.233 18.562 129.493 34.132zm-272.346-2.145c-11.533 21.83-9.544 47.549 9.041 69.549-20.689 7.002-37.012 24.109-42.512 46.292l-7.488 30.205-11.979-27.948c-20.149-47.01 3.905-101.716 52.938-118.098zm-82.165 238.012c0-16.262 9.617-30 21-30 1.314 0 4.747.015 9.015 3.354v53.607c-2.413 1.708-5.438 3.038-9.015 3.038-11.383.001-21-13.737-21-29.999zm360.015 45.003c0 74.44-60.56 135-135 135h-30c-74.439 0-135-60.56-135-135v-88.168l17.799-71.787c4.584-18.49 22.752-29.962 41.334-26.288 38.428 11.402 59.853 21.243 105.867 21.243 30.656 0 38.855-2.346 87.11-14.413 3.204-.701 6.296-1.057 9.192-1.057 10.363 0 16.68 4.244 18.772 12.613l19.925 79.703v88.154zm39.011-15.018c-3.575 0-6.599-1.328-9.011-3.035v-53.613c4.267-3.337 7.697-3.352 9.011-3.352 11.383 0 21 13.738 21 30s-9.617 30-21 30z"/><path d="m240.134 285.002c0-24.813-20.187-45-45-45-24.814 0-45 20.187-45 45 0 24.814 20.186 45 45 45 24.813 0 45-20.187 45-45zm-60 0c0-8.271 6.729-15 15-15s15 6.729 15 15c0 8.272-6.729 15-15 15-8.272 0-15-6.729-15-15z"/><path d="m315.134 240.002c-24.813 0-45 20.187-45 45 0 24.814 20.187 45 45 45s45-20.186 45-45c0-24.813-20.187-45-45-45zm0 60c-8.271 0-15-6.728-15-15 0-8.271 6.729-15 15-15s15 6.729 15 15-6.729 15-15 15z"/><path d="m255.134 405.002c-25.855 0-48.629-24.79-48.825-25.006l-22.35 20.012c1.279 1.43 31.788 34.994 71.175 34.994s69.895-33.564 71.175-34.994l-22.35-20.012c-.224.25-23.11 25.006-48.825 25.006z"/></g></svg>